<svg width="43" height="50" viewBox="0 0 43 50" fill="none" xmlns="http://www.w3.org/2000/svg">
<path d="M21.2871 0L0 12.5L21.2871 25L42.5743 12.5L21.2871 0Z" fill="#2AB855"/>
<path d="M0 37.5L21.2871 50V25L0 12.5L0 25L0 37.5Z" fill="#93E6AC"/>
<path d="M21.2871 50L42.5743 37.5V25V12.5L21.2871 25V50Z" fill="#17642E"/>
<path fill-rule="evenodd" clip-rule="evenodd" d="M21.2871 12.8713C14.5404 12.8713 9.0759 18.474 9.0759 25.3914C9.0759 30.9315 12.5714 35.6109 17.4253 37.2698C18.0359 37.3794 18.2648 37.0037 18.2648 36.6751C18.2648 36.3777 18.2496 35.3918 18.2496 34.3432C15.1815 34.9223 14.3878 33.5764 14.1436 32.8721C14.0062 32.5122 13.4109 31.401 12.8919 31.1037C12.4645 30.8689 11.8539 30.2899 12.8766 30.2742C13.8383 30.2586 14.5252 31.1819 14.7541 31.5575C15.8531 33.4512 17.6085 32.9191 18.3106 32.5904C18.4175 31.7766 18.738 31.2289 19.0891 30.9159C16.3721 30.6029 13.533 29.523 13.533 24.7341C13.533 23.3725 14.0062 22.2457 14.7846 21.3693C14.6625 21.0563 14.2351 19.773 14.9068 18.0515C14.9068 18.0515 15.9294 17.7228 18.2648 19.3348C19.2417 19.0531 20.2797 18.9122 21.3176 18.9122C22.3556 18.9122 23.3936 19.0531 24.3705 19.3348C26.7058 17.7072 27.7285 18.0515 27.7285 18.0515C28.4002 19.773 27.9728 21.0563 27.8506 21.3693C28.6291 22.2457 29.1023 23.3569 29.1023 24.7341C29.1023 29.5386 26.2479 30.6029 23.5309 30.9159C23.9736 31.3071 24.3552 32.0583 24.3552 33.2321C24.3552 34.9066 24.3399 36.2525 24.3399 36.6751C24.3399 37.0037 24.5689 37.395 25.1794 37.2698C30.0029 35.6109 33.4983 30.9159 33.4983 25.3914C33.4983 18.474 28.0338 12.8713 21.2871 12.8713Z" fill="white"/>
</svg>
