<svg width="43" height="50" viewBox="0 0 43 50" fill="none" xmlns="http://www.w3.org/2000/svg">
<path d="M21.2871 0L0 12.5L21.2871 25L42.5743 12.5L21.2871 0Z" fill="#2AB855"/>
<path d="M0 37.5L21.2871 50V25L0 12.5L0 25L0 37.5Z" fill="#93E6AC"/>
<path d="M21.2871 50L42.5743 37.5V25V12.5L21.2871 25V50Z" fill="#17642E"/>
<path d="M31.6123 13H10.8029C9.80605 13 9 13.787 9 14.76V35.6553C9 36.6283 9.80605 37.42 10.8029 37.42H31.6123C32.6092 37.42 33.42 36.6283 33.42 35.66V14.76C33.42 13.787 32.6092 13 31.6123 13ZM16.2449 33.8095H12.6201V22.1527H16.2449V33.8095ZM14.4325 20.5645C13.2687 20.5645 12.3291 19.6249 12.3291 18.4659C12.3291 17.3069 13.2687 16.3673 14.4325 16.3673C15.5915 16.3673 16.5311 17.3069 16.5311 18.4659C16.5311 19.6201 15.5915 20.5645 14.4325 20.5645ZM29.8095 33.8095H26.1894V28.1433C26.1894 26.7935 26.1655 25.0526 24.3054 25.0526C22.4215 25.0526 22.1353 26.5264 22.1353 28.0479V33.8095H18.52V22.1527H21.9922V23.7458H22.0399C22.5216 22.83 23.7045 21.8618 25.4644 21.8618C29.1322 21.8618 29.8095 24.2752 29.8095 27.4135V33.8095V33.8095Z" fill="white"/>
</svg>
